# xmcd CD database file
#
# Track frame offsets:
#	150
#	28124
#	68568
#	102207
#	144582
#	182685
#	217751
#
# Disc length: 3470 seconds
#
# Revision: 0
# Processed by: cddbd v1.5.2PL0 Copyright (c) Steve Scherf et al.
# Submitted via: CDex 1.70beta2
#
DISCID=590d8c07
DTITLE=Joel Moreno Codinachs - Emergexit
DYEAR=2010
DGENRE=Jazz
TTITLE0=Octoblues
TTITLE1=Sol a sol
TTITLE2=Emergexit
TTITLE3=Darrera el mirall
TTITLE4=Linear cycles
TTITLE5=Space
TTITLE6=Boerum street
EXTD=YEAR: 2010
EXTT0=
EXTT1=
EXTT2=
EXTT3=
EXTT4=
EXTT5=
EXTT6=
PLAYORDER=
